<svg width="24" height="24" viewBox="0 0 68 69" fill="none" xmlns="http://www.w3.org/2000/svg">
  <path d="M33.9003 0.0625H59.4252C64.2111 0.0625 68 3.85136 68 8.63728V34.1622C68 52.9071 52.8446 68.0625 34.0997 68.0625H33.9003C15.1554 68.0625 0 52.9071 0 34.1622C0 15.4173 15.1554 0.261913 33.9003 0.0625Z" fill="#E67300"/>
  <path fill-rule="evenodd" clip-rule="evenodd" d="M42.5 22.3132C42.5 26.4209 39.1701 29.7507 35.0625 29.7507C30.9549 29.7507 27.625 26.4209 27.625 22.3132C27.625 18.2056 30.9549 14.8757 35.0625 14.8757C39.1701 14.8757 42.5 18.2056 42.5 22.3132ZM31.9184 44.1402L19.125 31.8752H51L38.2066 44.1402V51.0002H31.9184V44.1402Z" fill="white"/>
</svg>
